<?xml version="1.0" standalone="no"?>
<!DOCTYPE svg PUBLIC "-//W3C//DTD SVG 20010904//EN"
 "http://www.w3.org/TR/2001/REC-SVG-20010904/DTD/svg10.dtd">
<svg version="1.0" xmlns="http://www.w3.org/2000/svg"
 width="275.000000pt" height="275.000000pt" viewBox="0 0 275.000000 275.000000"
 preserveAspectRatio="xMidYMid meet">
<metadata>
Created by potrace 1.14, written by Peter Selinger 2001-2017
</metadata>
<g transform="translate(0.000000,275.000000) scale(0.100000,-0.100000)"
fill="#000000" stroke="none">
<path d="M2 2160 c4 -437 8 -593 17 -604 17 -21 82 -29 129 -17 45 13 52 30
52 132 0 47 4 60 19 69 21 11 348 14 375 4 9 -4 16 -18 16 -34 0 -31 -17 -55
-225 -320 -67 -85 -130 -169 -139 -187 -13 -26 -16 -63 -16 -193 0 -213 1
-215 195 -208 104 3 108 4 132 32 l25 29 -4 227 c-3 261 -18 214 131 414 l96
130 3 93 4 93 49 0 49 0 0 -113 c0 -75 4 -117 12 -125 7 -7 40 -12 79 -12 84
0 99 16 99 102 0 76 11 82 148 76 93 -4 107 -7 123 -27 24 -29 32 -93 27 -203
-6 -124 -11 -128 -162 -128 -139 0 -151 -7 -151 -80 0 -74 12 -80 157 -80 150
0 158 -5 158 -114 0 -101 -13 -133 -58 -146 -21 -5 -116 -10 -213 -10 -127 0
-180 -4 -193 -13 -26 -19 -33 -90 -12 -123 l17 -25 332 3 c331 3 332 3 382 28
80 40 87 65 89 285 1 212 -1 220 -80 265 -29 16 -57 38 -62 47 -5 10 -12 90
-15 178 -4 88 -10 174 -15 190 l-9 30 156 -3 c107 -2 158 -7 163 -15 4 -7 8
-225 8 -485 l0 -473 25 -24 c23 -24 29 -25 159 -25 128 0 136 1 163 24 28 24
28 24 33 181 4 140 7 158 24 171 11 8 27 14 35 14 46 -1 65 -17 116 -96 77
-119 84 -135 89 -205 5 -79 17 -89 106 -89 90 0 100 12 100 114 0 42 -6 91
-13 109 -8 18 -55 94 -105 170 -51 76 -92 144 -92 150 0 7 28 75 62 152 60
137 61 142 68 255 4 63 7 105 8 93 2 -20 8 -23 42 -23 l40 0 0 465 0 465
-1376 0 -1377 0 5 -590z m2468 -410 c0 -64 -6 -84 -61 -213 -33 -78 -70 -151
-80 -162 -17 -17 -33 -20 -114 -20 -141 0 -142 2 -137 288 l3 177 195 0 194 0
0 -70z"/>
<path d="M0 305 l0 -305 1375 0 1375 0 0 305 0 305 -1375 0 -1375 0 0 -305z"/>
</g>
</svg>
