<?xml version="1.0" standalone="no"?>
<!DOCTYPE svg PUBLIC "-//W3C//DTD SVG 20010904//EN"
 "http://www.w3.org/TR/2001/REC-SVG-20010904/DTD/svg10.dtd">
<svg version="1.0" xmlns="http://www.w3.org/2000/svg"
 width="348.000000pt" height="348.000000pt" viewBox="0 0 348.000000 348.000000"
 preserveAspectRatio="xMidYMid meet">
<metadata>
Created by potrace 1.14, written by Peter Selinger 2001-2017
</metadata>
<g transform="translate(0.000000,348.000000) scale(0.100000,-0.100000)"
fill="#000000" stroke="none">
<path d="M0 2795 l0 -165 1740 0 1740 0 0 165 0 165 -1740 0 -1740 0 0 -165z"/>
<path d="M125 2401 c-92 -23 -106 -58 -108 -263 -2 -159 -2 -160 23 -180 21
-17 36 -19 102 -16 45 2 82 8 90 16 8 8 15 54 19 118 4 58 12 111 18 117 16
16 462 22 491 7 24 -13 26 -40 4 -83 -17 -31 -163 -221 -348 -452 -125 -155
-129 -169 -124 -399 4 -240 10 -246 225 -246 128 0 183 15 202 56 7 17 11 116
11 300 0 225 3 282 15 307 8 18 71 107 139 199 68 92 130 184 136 204 15 46 8
218 -10 257 -29 61 -36 62 -465 64 -214 1 -403 -2 -420 -6z"/>
<path d="M1265 2401 c-94 -24 -108 -54 -109 -239 -1 -141 -1 -144 24 -164 21
-17 36 -19 102 -16 45 2 82 8 90 16 7 7 15 49 19 99 7 116 7 116 176 111 153
-5 176 -15 193 -79 7 -24 10 -99 8 -180 -4 -189 3 -182 -203 -189 -185 -6
-188 -8 -188 -100 0 -93 2 -94 199 -100 202 -6 194 0 194 -145 0 -113 -11
-159 -44 -178 -14 -8 -102 -14 -279 -17 -299 -6 -287 -2 -287 -102 0 -45 5
-63 20 -78 19 -19 33 -20 388 -20 497 1 568 15 615 119 19 41 22 70 25 261 4
261 0 280 -73 327 -28 17 -66 45 -85 61 l-35 30 -6 199 c-7 225 -18 281 -64
327 -54 54 -83 59 -380 62 -148 2 -283 -1 -300 -5z"/>
<path d="M2406 2391 c-17 -18 -18 -62 -17 -651 1 -347 6 -641 10 -653 5 -12
19 -31 31 -42 20 -18 39 -20 174 -23 92 -2 166 1 189 8 65 19 71 38 77 258 5
192 5 194 30 214 34 28 94 19 130 -19 15 -15 58 -77 95 -138 66 -105 69 -113
75 -190 4 -44 11 -88 15 -98 11 -26 46 -37 120 -37 91 0 112 10 125 62 14 49
5 176 -15 224 -7 17 -63 106 -123 197 -61 91 -114 177 -118 191 -4 19 12 68
64 188 92 214 91 213 94 360 3 163 0 168 -117 168 -120 0 -119 1 -126 -167
l-6 -138 -60 -135 c-75 -169 -98 -213 -117 -229 -38 -31 -237 -25 -278 9 -23
18 -23 21 -28 325 -6 360 4 335 -125 335 -68 0 -85 -3 -99 -19z"/>
<path d="M0 685 l0 -155 1740 0 1740 0 0 155 0 155 -1740 0 -1740 0 0 -155z"/>
</g>
</svg>
