<!-- <svg height="500" width="500">
  <circle cx="250" cy="50" r="40" stroke="green" height="4" fill="yellow" />
</svg>  -->
<svg xmlns="http://www.w3.org/2000/svg" width="10000" height="10000">
  <!-- <circle cx="5000" cy="50" r="40" stroke="green" height="4" fill="yellow" /> -->


  <!-- line 0
    top: 32
    center: 41
    bottom: 50
    sixteen: 48
    -->
  <!-- <path shape-rendering="crispEdges" stroke="rgba(0,30,90,1)" fill="none" stroke-width="16" d="
    M 4608,40
    H 5392
    "></path> -->


  <!-- line 1
    top: 48
    center: 57
    bottom: 66
    sixteen: 64
    -->
  <path shape-rendering="crispEdges" stroke="rgba(0,118,158,1)" fill="none" stroke-width="16" d="
    M 4608,40
    H 5392
    "></path>

  <!-- line 0 points -->
  <!-- <circle cx="5392" cy="32" r="2" fill="red"></circle>
  <circle cx="5392" cy="48" r="2" fill="red"></circle> -->

  <!-- line 2
    top: 64
    center: 73
    bottom: 82
    sixteen: 80
    -->
  <path shape-rendering="crispEdges" stroke="rgba(2,149,167,1)" fill="none" stroke-width="16" d="
    M 4608,56
    H 5392
    "></path>

  <!-- line 3
    top: 80
    center: 89
    bottom: 98
    sixteen: 96
    -->
  <path shape-rendering="crispEdges" stroke="rgba(120,186,174,1)" fill="none" stroke-width="16" d="
    M 4608,72
    H 5392
    "></path>

  <!-- line 4
    top: 96
    center: 105
    bottom: 114
    sixteen: 112
    -->
  <path shape-rendering="crispEdges" stroke="rgba(255,237,191,1)" fill="none" stroke-width="16" d="
    M 4608,88
    H 5392
    "></path>

  <!-- line 5
    top: 112
    center: 121
    bottom: 130
    sixteen: 128
    -->
  <path shape-rendering="crispEdges" stroke="rgba(253,179,106,1)" fill="none" stroke-width="16" d="
    M 4608,104
    H 5392
    "></path>

  <!-- line 6
    top: 128
    center: 137
    bottom: 146
    sixteen: 144
    -->
  <path shape-rendering="crispEdges" stroke="rgba(255,117,28,1)" fill="none" stroke-width="16" d="
    M 4608,120
    H 5392
    "></path>

  <!-- line 7
    top: 144
    center: 153
    bottom: 162
    sixteen: 160
    -->
  <path shape-rendering="crispEdges" stroke="rgba(254,62,0,1)" fill="none" stroke-width="16" d="
    M 4608,136
    H 5392
    "></path>

  <!-- line 8
    top: 160
    center: 168
    bottom: 176
    sixteen: 176
    -->
  <path shape-rendering="crispEdges" stroke="rgb(136, 136, 136)" fill="none" stroke-width="16" d="
    M 4608,152
    H 5392
    "></path>

  <circle cx="4608" cy="88" r="2" fill="red"></circle>
  <circle cx="4608" cy="104" r="2" fill="red"></circle>
  <circle cx="4608" cy="120" r="2" fill="red"></circle>
  <circle cx="4608" cy="136" r="2" fill="red"></circle>
  <circle cx="4608" cy="152" r="2" fill="red"></circle>

  <!-- <path d="M30,1h40l29,29v40l-29,29h-40l-29-29v-40z" stroke="#000" fill="none"/> 
  <path d="M31,3h38l28,28v38l-28,28h-38l-28-28v-38z" fill="#a23"/> 
  <text x="50" y="68" font-size="48" fill="#FFF" text-anchor="middle"><![CDATA[410]]></text> -->
<script xmlns=""/></svg>